<mxfile host="app.diagrams.net" modified="2023-01-16T22:02:41.060Z" agent="5.0 (Windows NT 10.0; Win64; x64) AppleWebKit/537.36 (KHTML, like Gecko) Chrome/107.0.0.0 Safari/537.36 OPR/93.0.0.0" version="20.6.2" etag="1I2mqc50gb1UHZnPy6cM" type="github">
  <diagram id="_PJTgc74EPzyINK5DKc4" name="Page-1">
    <mxGraphModel dx="1454" dy="837" grid="1" gridSize="10" guides="1" tooltips="1" connect="1" arrows="1" fold="1" page="1" pageScale="1" pageWidth="1100" pageHeight="850" math="0" shadow="0">
      <root>
        <mxCell id="0" />
        <mxCell id="1" parent="0" />
        <mxCell id="idy5dTsEP6nruQmDIftt-5" style="edgeStyle=orthogonalEdgeStyle;rounded=0;orthogonalLoop=1;jettySize=auto;html=1;exitX=0.5;exitY=1;exitDx=0;exitDy=0;entryX=0.5;entryY=0;entryDx=0;entryDy=0;" edge="1" parent="1" source="idy5dTsEP6nruQmDIftt-2" target="idy5dTsEP6nruQmDIftt-4">
          <mxGeometry relative="1" as="geometry" />
        </mxCell>
        <mxCell id="idy5dTsEP6nruQmDIftt-2" value="HTTP Request&lt;br&gt;" style="rounded=0;whiteSpace=wrap;html=1;" vertex="1" parent="1">
          <mxGeometry x="480" y="140" width="120" height="60" as="geometry" />
        </mxCell>
        <mxCell id="idy5dTsEP6nruQmDIftt-9" style="edgeStyle=orthogonalEdgeStyle;rounded=0;orthogonalLoop=1;jettySize=auto;html=1;entryX=0.5;entryY=0;entryDx=0;entryDy=0;" edge="1" parent="1" source="idy5dTsEP6nruQmDIftt-4" target="idy5dTsEP6nruQmDIftt-8">
          <mxGeometry relative="1" as="geometry" />
        </mxCell>
        <mxCell id="idy5dTsEP6nruQmDIftt-10" style="edgeStyle=orthogonalEdgeStyle;rounded=0;orthogonalLoop=1;jettySize=auto;html=1;exitX=0.5;exitY=1;exitDx=0;exitDy=0;entryX=0.5;entryY=0;entryDx=0;entryDy=0;" edge="1" parent="1" source="idy5dTsEP6nruQmDIftt-4" target="idy5dTsEP6nruQmDIftt-7">
          <mxGeometry relative="1" as="geometry" />
        </mxCell>
        <mxCell id="idy5dTsEP6nruQmDIftt-11" style="edgeStyle=orthogonalEdgeStyle;rounded=0;orthogonalLoop=1;jettySize=auto;html=1;exitX=0;exitY=0.5;exitDx=0;exitDy=0;entryX=0.5;entryY=0;entryDx=0;entryDy=0;" edge="1" parent="1" source="idy5dTsEP6nruQmDIftt-4" target="idy5dTsEP6nruQmDIftt-6">
          <mxGeometry relative="1" as="geometry" />
        </mxCell>
        <mxCell id="idy5dTsEP6nruQmDIftt-4" value="Routes&lt;br&gt;" style="rounded=0;whiteSpace=wrap;html=1;" vertex="1" parent="1">
          <mxGeometry x="480" y="240" width="120" height="60" as="geometry" />
        </mxCell>
        <mxCell id="idy5dTsEP6nruQmDIftt-17" style="edgeStyle=orthogonalEdgeStyle;rounded=0;orthogonalLoop=1;jettySize=auto;html=1;entryX=0.5;entryY=0;entryDx=0;entryDy=0;" edge="1" parent="1" source="idy5dTsEP6nruQmDIftt-6" target="idy5dTsEP6nruQmDIftt-13">
          <mxGeometry relative="1" as="geometry" />
        </mxCell>
        <mxCell id="idy5dTsEP6nruQmDIftt-6" value="Facebook Routes" style="rounded=1;whiteSpace=wrap;html=1;" vertex="1" parent="1">
          <mxGeometry x="120" y="360" width="120" height="60" as="geometry" />
        </mxCell>
        <mxCell id="idy5dTsEP6nruQmDIftt-22" style="edgeStyle=orthogonalEdgeStyle;rounded=0;orthogonalLoop=1;jettySize=auto;html=1;entryX=0.5;entryY=0;entryDx=0;entryDy=0;" edge="1" parent="1" source="idy5dTsEP6nruQmDIftt-7" target="idy5dTsEP6nruQmDIftt-15">
          <mxGeometry relative="1" as="geometry" />
        </mxCell>
        <mxCell id="idy5dTsEP6nruQmDIftt-7" value="Instagram Routes" style="rounded=1;whiteSpace=wrap;html=1;" vertex="1" parent="1">
          <mxGeometry x="480" y="360" width="120" height="60" as="geometry" />
        </mxCell>
        <mxCell id="idy5dTsEP6nruQmDIftt-21" style="edgeStyle=orthogonalEdgeStyle;rounded=0;orthogonalLoop=1;jettySize=auto;html=1;entryX=0.5;entryY=0;entryDx=0;entryDy=0;" edge="1" parent="1" source="idy5dTsEP6nruQmDIftt-8" target="idy5dTsEP6nruQmDIftt-19">
          <mxGeometry relative="1" as="geometry" />
        </mxCell>
        <mxCell id="idy5dTsEP6nruQmDIftt-8" value="Google Calendar Routes" style="rounded=1;whiteSpace=wrap;html=1;" vertex="1" parent="1">
          <mxGeometry x="840" y="360" width="120" height="60" as="geometry" />
        </mxCell>
        <mxCell id="idy5dTsEP6nruQmDIftt-28" value="" style="edgeStyle=orthogonalEdgeStyle;rounded=0;orthogonalLoop=1;jettySize=auto;html=1;fontSize=18;" edge="1" parent="1" source="idy5dTsEP6nruQmDIftt-13" target="idy5dTsEP6nruQmDIftt-24">
          <mxGeometry relative="1" as="geometry" />
        </mxCell>
        <mxCell id="idy5dTsEP6nruQmDIftt-13" value="Facebook Information Controller" style="rounded=0;whiteSpace=wrap;html=1;" vertex="1" parent="1">
          <mxGeometry x="120" y="480" width="120" height="60" as="geometry" />
        </mxCell>
        <mxCell id="idy5dTsEP6nruQmDIftt-27" value="" style="edgeStyle=orthogonalEdgeStyle;rounded=0;orthogonalLoop=1;jettySize=auto;html=1;fontSize=18;" edge="1" parent="1" source="idy5dTsEP6nruQmDIftt-15" target="idy5dTsEP6nruQmDIftt-24">
          <mxGeometry relative="1" as="geometry" />
        </mxCell>
        <mxCell id="idy5dTsEP6nruQmDIftt-15" value="Instagram Information Controller" style="rounded=0;whiteSpace=wrap;html=1;" vertex="1" parent="1">
          <mxGeometry x="480" y="480" width="120" height="60" as="geometry" />
        </mxCell>
        <mxCell id="idy5dTsEP6nruQmDIftt-29" value="" style="edgeStyle=orthogonalEdgeStyle;rounded=0;orthogonalLoop=1;jettySize=auto;html=1;fontSize=18;" edge="1" parent="1" source="idy5dTsEP6nruQmDIftt-19" target="idy5dTsEP6nruQmDIftt-24">
          <mxGeometry relative="1" as="geometry" />
        </mxCell>
        <mxCell id="idy5dTsEP6nruQmDIftt-19" value="Instagram Information Controller" style="rounded=0;whiteSpace=wrap;html=1;" vertex="1" parent="1">
          <mxGeometry x="840" y="480" width="120" height="60" as="geometry" />
        </mxCell>
        <mxCell id="idy5dTsEP6nruQmDIftt-30" value="" style="edgeStyle=orthogonalEdgeStyle;rounded=0;orthogonalLoop=1;jettySize=auto;html=1;fontSize=18;" edge="1" parent="1" source="idy5dTsEP6nruQmDIftt-24" target="idy5dTsEP6nruQmDIftt-26">
          <mxGeometry relative="1" as="geometry" />
        </mxCell>
        <mxCell id="idy5dTsEP6nruQmDIftt-24" value="&lt;font style=&quot;font-size: 18px;&quot;&gt;Service Layer(Service for each controller)&lt;/font&gt;" style="rounded=0;whiteSpace=wrap;html=1;" vertex="1" parent="1">
          <mxGeometry x="120" y="620" width="840" height="60" as="geometry" />
        </mxCell>
        <mxCell id="idy5dTsEP6nruQmDIftt-31" style="edgeStyle=orthogonalEdgeStyle;rounded=0;orthogonalLoop=1;jettySize=auto;html=1;entryX=1;entryY=0.5;entryDx=0;entryDy=0;fontSize=18;dashed=1;dashPattern=1 1;strokeWidth=3;" edge="1" parent="1" source="idy5dTsEP6nruQmDIftt-26" target="idy5dTsEP6nruQmDIftt-2">
          <mxGeometry relative="1" as="geometry">
            <Array as="points">
              <mxPoint x="1070" y="750" />
              <mxPoint x="1070" y="170" />
            </Array>
          </mxGeometry>
        </mxCell>
        <mxCell id="idy5dTsEP6nruQmDIftt-32" value="Response" style="edgeLabel;html=1;align=center;verticalAlign=middle;resizable=0;points=[];fontSize=18;" vertex="1" connectable="0" parent="idy5dTsEP6nruQmDIftt-31">
          <mxGeometry x="-0.1379" y="-1" relative="1" as="geometry">
            <mxPoint as="offset" />
          </mxGeometry>
        </mxCell>
        <mxCell id="idy5dTsEP6nruQmDIftt-26" value="&lt;font style=&quot;font-size: 18px;&quot;&gt;Call to external API&lt;/font&gt;" style="rounded=0;whiteSpace=wrap;html=1;" vertex="1" parent="1">
          <mxGeometry x="120" y="720" width="840" height="60" as="geometry" />
        </mxCell>
      </root>
    </mxGraphModel>
  </diagram>
</mxfile>
